<svg width="23" height="21" viewBox="0 0 23 21" fill="none" xmlns="http://www.w3.org/2000/svg">
<g filter="url(#filter0_d_6_439)">
<mask id="path-1-inside-1_6_439" fill="white">
<path d="M10.0495 8.72806L15.4957 12.5768C16.1172 12.9048 16.5657 12.735 16.7205 12.0249L18.9374 2.03246C19.1644 1.16206 18.5906 0.76729 17.996 1.02547L4.9784 5.82666C4.08983 6.16756 4.09501 6.64173 4.81644 6.85301L8.15705 7.85032L15.8909 3.18335C16.256 2.97158 16.5911 3.08543 16.3161 3.31891"/>
</mask>
<path d="M10.0495 8.72806L15.4957 12.5768C16.1172 12.9048 16.5657 12.735 16.7205 12.0249L18.9374 2.03246C19.1644 1.16206 18.5906 0.76729 17.996 1.02547L4.9784 5.82666C4.08983 6.16756 4.09501 6.64173 4.81644 6.85301L8.15705 7.85032L15.8909 3.18335C16.256 2.97158 16.5911 3.08543 16.3161 3.31891" fill="#B6BAC7"/>
<path d="M15.4957 12.5768L14.9186 13.3935L14.9716 13.4309L15.029 13.4612L15.4957 12.5768ZM16.7205 12.0249L15.7443 11.8083L15.7435 11.8119L16.7205 12.0249ZM18.9374 2.03246L17.9698 1.78013L17.9652 1.79792L17.9612 1.81587L18.9374 2.03246ZM17.996 1.02547L18.3421 1.96369L18.3685 1.95394L18.3943 1.94272L17.996 1.02547ZM4.9784 5.82666L4.63234 4.88836L4.62021 4.89301L4.9784 5.82666ZM4.81644 6.85301L5.1025 5.89479L5.0975 5.89332L4.81644 6.85301ZM8.15705 7.85032L7.87099 8.80853L8.29492 8.93509L8.67371 8.70651L8.15705 7.85032ZM15.8909 3.18335L15.3892 2.31833L15.3817 2.32268L15.3743 2.32716L15.8909 3.18335ZM9.47234 9.54473L14.9186 13.3935L16.0728 11.7601L10.6266 7.9114L9.47234 9.54473ZM15.029 13.4612C15.4558 13.6864 16.0658 13.8729 16.6792 13.6084C17.3112 13.3357 17.5875 12.7429 17.6976 12.2379L15.7435 11.8119C15.7233 11.9047 15.705 11.9235 15.7184 11.9033C15.7369 11.8755 15.7902 11.8137 15.8871 11.7719C15.9814 11.7312 16.054 11.7367 16.0709 11.7391C16.0816 11.7407 16.0471 11.7371 15.9624 11.6924L15.029 13.4612ZM17.6968 12.2415L19.9137 2.24905L17.9612 1.81587L15.7443 11.8083L17.6968 12.2415ZM19.9051 2.28479C20.0752 1.63226 20.0056 0.882037 19.4539 0.37168C18.9045 -0.13656 18.1639 -0.137664 17.5977 0.108225L18.3943 1.94272C18.4053 1.93798 18.3792 1.9522 18.3196 1.94583C18.2563 1.93907 18.1709 1.90939 18.0957 1.83982C18.0199 1.76966 17.995 1.69682 17.9892 1.66831C17.9846 1.64514 17.9968 1.6767 17.9698 1.78013L19.9051 2.28479ZM17.65 0.0872522L4.63237 4.88844L5.32444 6.76488L18.3421 1.96369L17.65 0.0872522ZM4.62021 4.89301C4.3353 5.00232 4.05859 5.14521 3.83119 5.33745C3.613 5.5219 3.34606 5.83493 3.29908 6.28452C3.2476 6.77728 3.48518 7.16156 3.74233 7.39372C3.9828 7.61081 4.27466 7.73635 4.53537 7.8127L5.0975 5.89332C4.9975 5.86404 5.01818 5.85108 5.08254 5.90918C5.16359 5.98236 5.32014 6.18717 5.28826 6.49237C5.27458 6.62327 5.22914 6.72058 5.19197 6.77945C5.15615 6.83616 5.12505 6.86255 5.12237 6.86481C5.12136 6.86567 5.17722 6.82145 5.3366 6.76031L4.62021 4.89301ZM4.53037 7.81123L7.87099 8.80853L8.44311 6.89211L5.1025 5.8948L4.53037 7.81123ZM8.67371 8.70651L16.4076 4.03954L15.3743 2.32716L7.64039 6.99413L8.67371 8.70651ZM16.3927 4.04837C16.3953 4.04683 16.3812 4.05605 16.3434 4.0635C16.3243 4.06726 16.2042 4.09088 16.0318 4.03434C15.9412 4.00462 15.7864 3.93553 15.6479 3.77809C15.4935 3.60263 15.4085 3.37063 15.4178 3.13076C15.4261 2.91521 15.5069 2.76299 15.5559 2.68846C15.6066 2.61124 15.6543 2.56893 15.6689 2.55655L16.9632 4.08126C17.0828 3.97976 17.3977 3.68715 17.4163 3.20814C17.4271 2.92807 17.3291 2.66122 17.1495 2.45706C16.9858 2.27093 16.7934 2.1793 16.6553 2.13399C16.3879 2.04627 16.1327 2.06655 15.9568 2.10122C15.762 2.13958 15.5691 2.21399 15.3892 2.31833L16.3927 4.04837Z" fill="black" mask="url(#path-1-inside-1_6_439)"/>
</g>
<defs>
<filter id="filter0_d_6_439" x="0.292236" y="0.947479" width="22.696" height="19.7899" filterUnits="userSpaceOnUse" color-interpolation-filters="sRGB">
<feFlood flood-opacity="0" result="BackgroundImageFix"/>
<feColorMatrix in="SourceAlpha" type="matrix" values="0 0 0 0 0 0 0 0 0 0 0 0 0 0 0 0 0 0 127 0" result="hardAlpha"/>
<feOffset dy="4"/>
<feGaussianBlur stdDeviation="2"/>
<feComposite in2="hardAlpha" operator="out"/>
<feColorMatrix type="matrix" values="0 0 0 0 0 0 0 0 0 0 0 0 0 0 0 0 0 0 0.25 0"/>
<feBlend mode="normal" in2="BackgroundImageFix" result="effect1_dropShadow_6_439"/>
<feBlend mode="normal" in="SourceGraphic" in2="effect1_dropShadow_6_439" result="shape"/>
</filter>
</defs>
</svg>
