<svg width="23" height="21" fill="none" xmlns="http://www.w3.org/2000/svg"><g filter="url(#a)"><mask id="b" fill="#fff"><path d="m10.05 8.728 5.446 3.849c.621.328 1.07.158 1.225-.552l2.216-9.993c.227-.87-.346-1.265-.941-1.007L4.978 5.827c-.888.34-.883.815-.162 1.026l3.341.997 7.734-4.667c.365-.211.7-.098.425.136"/></mask><path d="m10.05 8.728 5.446 3.849c.621.328 1.07.158 1.225-.552l2.216-9.993c.227-.87-.346-1.265-.941-1.007L4.978 5.827c-.888.34-.883.815-.162 1.026l3.341.997 7.734-4.667c.365-.211.7-.098.425.136" fill="#B6BAC7"/><path d="m15.496 12.577-.577.816.053.038.057.03.467-.884Zm1.225-.552-.977-.217v.004l.977.213Zm2.216-9.993-.967-.252-.005.018-.004.018.976.216Zm-.941-1.007.346.939.027-.01.025-.011-.398-.918ZM4.978 5.827l-.346-.939-.012.005.358.934Zm-.162 1.026.287-.958-.005-.002-.282.96Zm3.341.997-.286.959.424.126.379-.228-.517-.857Zm7.734-4.667-.502-.865-.007.005-.008.004.517.856ZM9.472 9.545l5.447 3.848 1.154-1.633-5.446-3.849-1.155 1.634Zm5.557 3.916c.427.225 1.037.412 1.65.147.632-.272.909-.865 1.019-1.37l-1.955-.426c-.02.093-.038.112-.025.091a.393.393 0 0 1 .17-.131.364.364 0 0 1 .183-.033c.01.002-.024-.002-.109-.047l-.933 1.77Zm2.668-1.22 2.217-9.992-1.953-.433-2.217 9.992 1.953.434Zm2.208-9.956c.17-.653.1-1.403-.451-1.913-.55-.509-1.29-.51-1.856-.264l.796 1.835c.011-.005-.015.01-.074.003a.4.4 0 0 1-.33-.278c-.005-.023.007.009-.02.112l1.935.505ZM17.65.087 4.632 4.888l.692 1.877 13.018-4.801L17.65.087ZM4.62 4.893a2.74 2.74 0 0 0-.789.444c-.218.185-.485.498-.532.948-.051.492.186.877.443 1.109.24.217.533.342.793.419l.563-1.92c-.1-.029-.08-.042-.015.016a.698.698 0 0 1 .205.583.67.67 0 0 1-.096.287.38.38 0 0 1-.07.086s.055-.044.215-.105L4.62 4.893Zm-.09 2.918 3.341.998.572-1.917-3.34-.997L4.53 7.81Zm4.144.896 7.734-4.667-1.034-1.713L7.64 6.994l1.034 1.713Zm7.719-4.659c.002-.001-.012.008-.05.016a.622.622 0 0 1-.311-.03.879.879 0 0 1-.384-.256.928.928 0 0 1-.23-.647.866.866 0 0 1 .138-.443.617.617 0 0 1 .113-.131l1.294 1.524c.12-.101.435-.394.453-.873a1.065 1.065 0 0 0-.267-.75 1.121 1.121 0 0 0-.494-.324 1.39 1.39 0 0 0-.698-.033 1.851 1.851 0 0 0-.568.217l1.004 1.73Z" fill="#000" mask="url(#b)"/></g><defs><filter id="a" x=".292" y=".947" width="22.696" height="19.79" filterUnits="userSpaceOnUse" color-interpolation-filters="sRGB"><feFlood flood-opacity="0" result="BackgroundImageFix"/><feColorMatrix in="SourceAlpha" values="0 0 0 0 0 0 0 0 0 0 0 0 0 0 0 0 0 0 127 0" result="hardAlpha"/><feOffset dy="4"/><feGaussianBlur stdDeviation="2"/><feComposite in2="hardAlpha" operator="out"/><feColorMatrix values="0 0 0 0 0 0 0 0 0 0 0 0 0 0 0 0 0 0 0.25 0"/><feBlend in2="BackgroundImageFix" result="effect1_dropShadow_6_439"/><feBlend in="SourceGraphic" in2="effect1_dropShadow_6_439" result="shape"/></filter></defs></svg>